{
    "asset" : {
        "generator" : "Khronos glTF Blender I/O v0.9.36",
        "version" : "2.0"
    },
    "scene" : 0,
    "scenes" : [
        {
            "name" : "Scene",
            "nodes" : [
                0,
                1
            ]
        }
    ],
    "nodes" : [
        {
            "mesh" : 0,
            "name" : "base",
            "rotation" : [
                0.7071067690849304,
                0,
                0,
                0.7071067690849304
            ],
            "scale" : [
                1,
                2.0013253688812256,
                1
            ],
            "translation" : [
                0,
                -0.022077202796936035,
                0
            ]
        },
        {
            "mesh" : 1,
            "name" : "rotator",
            "rotation" : [
                0.7071067690849304,
                0,
                0,
                0.7071067690849304
            ],
            "scale" : [
                1,
                2.0013253688812256,
                1
            ],
            "translation" : [
                0,
                -0.022077202796936035,
                1.9350428581237793
            ]
        }
    ],
    "materials" : [
        {
            "doubleSided" : true,
            "name" : "Material.001",
            "pbrMetallicRoughness" : {
                "baseColorFactor" : [
                    0.8000000715255737,
                    0.01721101813018322,
                    0.055529288947582245,
                    1
                ],
                "metallicFactor" : 0,
                "roughnessFactor" : 0.6018182039260864
            }
        },
        {
            "doubleSided" : true,
            "name" : "Material.002",
            "pbrMetallicRoughness" : {
                "baseColorFactor" : [
                    0.800000011920929,
                    0.800000011920929,
                    0.800000011920929,
                    1
                ],
                "metallicFactor" : 0.9418181777000427,
                "roughnessFactor" : 0.4272727370262146
            }
        }
    ],
    "meshes" : [
        {
            "name" : "Cylinder",
            "primitives" : [
                {
                    "attributes" : {
                        "POSITION" : 0,
                        "NORMAL" : 1,
                        "TEXCOORD_0" : 2
                    },
                    "indices" : 3,
                    "material" : 0
                }
            ]
        },
        {
            "name" : "Cylinder.005",
            "primitives" : [
                {
                    "attributes" : {
                        "POSITION" : 4,
                        "NORMAL" : 5,
                        "TEXCOORD_0" : 6
                    },
                    "indices" : 7,
                    "material" : 1
                }
            ]
        }
    ],
    "accessors" : [
        {
            "bufferView" : 0,
            "componentType" : 5126,
            "count" : 24703,
            "max" : [
                4.858017921447754,
                1.0000001192092896,
                0.9472059607505798
            ],
            "min" : [
                -4.858018398284912,
                -1.0365548133850098,
                -1.4813146591186523
            ],
            "type" : "VEC3"
        },
        {
            "bufferView" : 1,
            "componentType" : 5126,
            "count" : 24703,
            "type" : "VEC3"
        },
        {
            "bufferView" : 2,
            "componentType" : 5126,
            "count" : 24703,
            "type" : "VEC2"
        },
        {
            "bufferView" : 3,
            "componentType" : 5123,
            "count" : 111936,
            "type" : "SCALAR"
        },
        {
            "bufferView" : 4,
            "componentType" : 5126,
            "count" : 13125,
            "max" : [
                1.457678198814392,
                0.37200936675071716,
                0.454665869474411
            ],
            "min" : [
                -1.4543923139572144,
                -0.07281530648469925,
                -0.44878578186035156
            ],
            "type" : "VEC3"
        },
        {
            "bufferView" : 5,
            "componentType" : 5126,
            "count" : 13125,
            "type" : "VEC3"
        },
        {
            "bufferView" : 6,
            "componentType" : 5126,
            "count" : 13125,
            "type" : "VEC2"
        },
        {
            "bufferView" : 7,
            "componentType" : 5123,
            "count" : 52668,
            "type" : "SCALAR"
        }
    ],
    "bufferViews" : [
        {
            "buffer" : 0,
            "byteLength" : 296436,
            "byteOffset" : 0
        },
        {
            "buffer" : 0,
            "byteLength" : 296436,
            "byteOffset" : 296436
        },
        {
            "buffer" : 0,
            "byteLength" : 197624,
            "byteOffset" : 592872
        },
        {
            "buffer" : 0,
            "byteLength" : 223872,
            "byteOffset" : 790496
        },
        {
            "buffer" : 0,
            "byteLength" : 157500,
            "byteOffset" : 1014368
        },
        {
            "buffer" : 0,
            "byteLength" : 157500,
            "byteOffset" : 1171868
        },
        {
            "buffer" : 0,
            "byteLength" : 105000,
            "byteOffset" : 1329368
        },
        {
            "buffer" : 0,
            "byteLength" : 105336,
            "byteOffset" : 1434368
        }
    ],
    "buffers" : [
        {
            "byteLength" : 1539704,
            "uri" : "data:application/octet-stream;base64,"
        }
    ]
}
